<svg width="16" height="17" viewBox="0 0 16 17" fill="none" xmlns="http://www.w3.org/2000/svg">
<path d="M15.2526 7.09683C15.1738 6.41663 14.8484 5.7855 14.3345 5.3158C13.8206 4.84609 13.1515 4.56825 12.446 4.5316V4.33165C12.4466 3.76273 12.3312 3.19936 12.1063 2.67378C11.8815 2.1482 11.5517 1.6708 11.1359 1.26911C10.7209 0.866206 10.2278 0.546718 9.68507 0.328924C9.1423 0.111129 8.5605 -0.000662074 7.97301 2.94969e-06C6.7871 0.000423414 5.64992 0.456995 4.81135 1.2694C3.97278 2.08181 3.50151 3.1836 3.50107 4.33252V4.53469C2.80495 4.58262 2.14802 4.86536 1.6447 5.33371C1.14137 5.80206 0.823478 6.42645 0.74599 7.09838L0 13.682C0.00368492 14.5648 0.368802 15.41 1.01524 16.0321C1.66168 16.6542 2.53674 17.0023 3.4479 17H12.5523C13.4635 17.0023 14.3383 16.6542 14.9848 16.0321C15.6312 15.41 15.9963 14.5648 16 13.682L15.2526 7.09683ZM4.81435 4.33959C4.81424 3.93776 4.89577 3.53984 5.05442 3.16856C5.21307 2.79729 5.44579 2.45997 5.73904 2.1758C6.03229 1.89162 6.38029 1.66614 6.76348 1.51234C7.14667 1.35854 7.55744 1.27947 7.97222 1.27947C8.38708 1.27909 8.79786 1.35804 9.18115 1.51186C9.56444 1.66567 9.91272 1.89122 10.2058 2.1757C10.4996 2.45956 10.7325 2.79684 10.8914 3.16818C11.0503 3.53951 11.132 3.93761 11.1317 4.33959V4.52521H4.81435V4.33959ZM5.43741 8.84029C5.33319 8.8404 5.22988 8.82059 5.13358 8.782C5.03727 8.74341 4.94981 8.68676 4.87612 8.61536C4.80243 8.54397 4.74404 8.45924 4.70421 8.36594C4.66438 8.27264 4.64394 8.17265 4.64405 8.07168C4.64394 7.97072 4.66438 7.87072 4.70421 7.77742C4.74404 7.68412 4.80243 7.5993 4.87612 7.5279C4.94981 7.45651 5.03727 7.39995 5.13358 7.36136C5.22988 7.32277 5.33319 7.30297 5.43741 7.30307C5.54177 7.30286 5.64515 7.32255 5.74164 7.36107C5.83813 7.39959 5.92579 7.45613 5.9997 7.52751C6.07361 7.5989 6.13234 7.68368 6.17241 7.77704C6.21247 7.8704 6.23306 7.97057 6.23317 8.07168C6.23306 8.17279 6.21247 8.27287 6.17241 8.36623C6.13234 8.45959 6.07361 8.54437 5.9997 8.61575C5.92579 8.68713 5.83813 8.74367 5.74164 8.7822C5.64515 8.82072 5.54177 8.8405 5.43741 8.84029ZM10.5644 8.84029C10.46 8.8405 10.3566 8.82072 10.2602 8.7822C10.1637 8.74367 10.076 8.68713 10.0021 8.61575C9.92819 8.54437 9.86946 8.45959 9.82939 8.36623C9.78933 8.27287 9.76873 8.17279 9.76863 8.07168C9.76873 7.97057 9.78933 7.8704 9.82939 7.77704C9.86946 7.68368 9.92819 7.5989 10.0021 7.52751C10.076 7.45613 10.1637 7.39959 10.2602 7.36107C10.3566 7.32255 10.46 7.30286 10.5644 7.30307C10.6686 7.30297 10.7717 7.32277 10.868 7.36136C10.9643 7.39995 11.052 7.45651 11.1257 7.5279C11.1994 7.5993 11.2578 7.68412 11.2976 7.77742C11.3374 7.87072 11.3579 7.97072 11.3578 8.07168C11.3579 8.17265 11.3374 8.27264 11.2976 8.36594C11.2578 8.45924 11.1994 8.54397 11.1257 8.61536C11.052 8.68676 10.9643 8.74341 10.868 8.782C10.7717 8.82059 10.6686 8.8404 10.5644 8.84029Z" fill="white"/>
</svg>
