<svg width="26" height="26" viewBox="0 0 26 26" fill="none" xmlns="http://www.w3.org/2000/svg">
<circle cx="13" cy="13" r="13" fill="white"/>
<path d="M17.9709 7.28862L17.9709 7.28863L17.969 7.28644C17.5675 6.83282 16.9041 6.75815 16.4356 7.09543L16.4351 7.09575C15.9371 7.45319 15.7681 8.1167 16.0467 8.6684L16.0481 8.67113C16.1099 8.79599 16.21 8.92304 16.3295 9.04251L16.3313 9.04429C17.7678 10.4982 18.3446 12.2735 17.8342 14.3294L17.8341 14.3296C17.3467 16.2894 16.0917 17.5916 14.2445 18.1774L14.244 18.1775C12.4433 18.7457 10.7473 18.3828 9.29391 17.1611C8.0411 16.1107 7.39949 14.6968 7.37744 13.0317C7.35844 11.703 7.80427 10.528 8.62337 9.52523C8.69464 9.43742 8.7743 9.36627 8.83168 9.31547C8.8367 9.31102 8.84156 9.30672 8.84627 9.30256C8.90262 9.25272 8.93767 9.22171 8.96801 9.18823L8.96799 9.18821L8.97099 9.18498C9.30076 8.82901 9.38908 8.42546 9.24514 7.95201C9.09948 7.48529 8.79135 7.22029 8.32757 7.12619C7.98897 7.05824 7.68274 7.14284 7.38094 7.38519L7.37973 7.38615C6.77752 7.86593 6.35491 8.51599 5.96094 9.25149C5.29893 10.4885 5.00048 11.824 5.04799 13.2449L5.048 13.2453C5.10389 14.978 5.65234 16.5167 6.68691 17.8675C7.66914 19.1469 8.89553 20.0439 10.3794 20.4968L10.3797 20.4969C12.912 21.2722 15.2522 20.8674 17.3721 19.2076L17.3723 19.2075C18.7443 18.1347 19.6462 16.7092 20.0941 14.9676L20.0945 14.9659C20.2628 14.3236 20.336 13.6623 20.3391 12.9822C20.3075 10.8173 19.5663 8.97538 18.1077 7.4439L18.3973 7.16803L18.1085 7.44473C18.0771 7.412 18.0258 7.35227 17.9948 7.31628C17.9834 7.30294 17.9747 7.29286 17.9709 7.28862Z" fill="#FE724C" stroke="white" stroke-width="0.8"/>
<path d="M11.1115 10.6563C11.1144 11.4966 11.7262 12.1934 12.5224 12.2728C13.3479 12.3584 14.0855 11.8022 14.2495 10.9649C14.2729 10.8457 14.2758 10.7235 14.2758 10.6013M11.1115 10.6563C11.1057 8.39499 11.1057 7.60035 11.1115 5.33906C11.1115 4.73707 11.3837 4.26953 11.8726 3.96395C12.3819 3.64309 12.9264 3.63087 13.4474 3.93034C13.9802 4.23592 14.267 4.72179 14.27 5.36351M11.1115 10.6563L11.5115 10.6552C11.5115 10.6552 11.5115 10.6552 11.5115 10.6552C11.5139 11.3041 11.9834 11.817 12.5621 11.8748L12.5637 11.8749C13.1758 11.9384 13.7313 11.5297 13.8569 10.8881L13.857 10.8878C13.8723 10.8099 13.8758 10.7216 13.8758 10.6023M11.1115 10.6563L11.5115 10.6549L13.8758 10.6023M14.27 5.36351C14.2718 6.08128 14.2713 6.50091 14.2707 7.003C14.2703 7.28754 14.27 7.59855 14.27 8.00531V8.00536C14.27 9.11458 14.27 9.49204 14.2758 10.6013M14.27 5.36351L13.87 5.36533C13.87 5.36521 13.87 5.36509 13.87 5.36496M14.27 5.36351L13.87 5.36455C13.87 5.36469 13.87 5.36482 13.87 5.36496M14.2758 10.6013L13.8758 10.6034C13.8758 10.603 13.8758 10.6027 13.8758 10.6023M14.2758 10.6013H13.8758C13.8758 10.6016 13.8758 10.602 13.8758 10.6023M13.8758 10.6023C13.87 9.49287 13.87 9.11451 13.87 8.00531C13.87 7.59751 13.8703 7.2862 13.8707 7.00162C13.8713 6.50022 13.8718 6.08182 13.87 5.36496M13.8758 10.6023L11.5115 5.3401L11.5115 5.33906C11.5115 4.87802 11.7101 4.53724 12.0846 4.30313L12.0858 4.3024L12.0858 4.30239C12.4705 4.06005 12.8562 4.05192 13.2481 4.27714L13.2484 4.27731C13.6556 4.5109 13.8676 4.86417 13.87 5.36496" fill="#FE724C" stroke="white" stroke-width="0.8"/>
</svg>
